<?xml version="1.0" encoding="UTF-8"?>
<svg version="1.1" xmlns="http://www.w3.org/2000/svg" width="108" height="108">
<path d="M0 0 C35.64 0 71.28 0 108 0 C108 35.64 108 71.28 108 108 C72.36 108 36.72 108 0 108 C0 72.36 0 36.72 0 0 Z " fill="#569ADC" transform="translate(0,0)"/>
<path d="M0 0 C0.66 0 1.32 0 2 0 C3.74185215 2.85592108 5.43697113 5.73699304 7.125 8.625 C7.61871094 9.43324219 8.11242188 10.24148437 8.62109375 11.07421875 C12.12377696 17.1422474 12.12377696 17.1422474 11.5546875 21.0859375 C11.04164062 22.04757813 10.52859375 23.00921875 10 24 C9.29080673 25.45791534 8.58250694 26.91626557 7.875 28.375 C7.2539497 29.58536811 6.63032133 30.79443396 6 32 C6.95366455 31.98952637 7.9073291 31.97905273 8.88989258 31.96826172 C12.42891688 31.93205499 15.9679248 31.90909716 19.50708008 31.89013672 C21.03868361 31.88008065 22.57026795 31.866434 24.10180664 31.84912109 C26.30359636 31.82485502 28.50513219 31.81351312 30.70703125 31.8046875 C31.39150833 31.79436493 32.07598541 31.78404236 32.78120422 31.77340698 C36.43061661 31.77254618 37.87148502 31.91432334 41 34 C41.30409587 36.87322788 41.41995458 39.52710203 41.3984375 42.40234375 C41.40130768 43.23584854 41.40417786 44.06935333 41.40713501 44.92811584 C41.40917826 46.69256264 41.4036302 48.45703196 41.39111328 50.22143555 C41.37508288 52.92353016 41.39094213 55.6241244 41.41015625 58.32617188 C41.40817347 60.03906581 41.40432907 61.7519588 41.3984375 63.46484375 C41.40451019 64.2742894 41.41058289 65.08373505 41.4168396 65.91770935 C41.34748081 71.44872235 41.34748081 71.44872235 39.91960144 73.71405029 C36.96661457 75.69226959 34.42157198 75.37401788 30.89819336 75.37231445 C30.17920364 75.37596512 29.46021393 75.37961578 28.71943665 75.38337708 C26.34266549 75.39148384 23.96657578 75.37787333 21.58984375 75.36328125 C19.93982443 75.36276271 18.28980448 75.36328017 16.63978577 75.36479187 C13.182208 75.36470214 9.72486339 75.35427123 6.26733398 75.33618164 C1.82946727 75.31347661 -2.60805922 75.3129535 -7.04596806 75.31969929 C-10.45254047 75.32303603 -13.85903493 75.31641508 -17.26559258 75.30657005 C-18.90230336 75.30271399 -20.53902282 75.30157151 -22.17573738 75.3031559 C-24.45985661 75.30352561 -26.74353475 75.29093404 -29.02758789 75.2746582 C-30.3287001 75.27005081 -31.62981232 75.26544342 -32.97035217 75.26069641 C-36 75 -36 75 -38 73 C-38.18772998 70.08235543 -38.25553095 67.26129187 -38.23046875 64.34375 C-38.23001053 63.48567749 -38.22955231 62.62760498 -38.2290802 61.74353027 C-38.22605674 59.9278017 -38.21816763 58.11207576 -38.20581055 56.29638672 C-38.18757399 53.51130013 -38.18530071 50.72654626 -38.18554688 47.94140625 C-38.18063095 46.17968461 -38.17480231 44.41796524 -38.16796875 42.65625 C-38.16685593 41.81976929 -38.1657431 40.98328857 -38.16459656 40.12145996 C-38.11606528 34.23213057 -38.11606528 34.23213057 -37 32 C-26.11 32 -15.22 32 -4 32 C-5.98 28.04 -7.96 24.08 -10 20 C-7.75 13.25 -7.75 13.25 -6.0546875 10.3515625 C-5.70019531 9.73925781 -5.34570312 9.12695312 -4.98046875 8.49609375 C-4.61566406 7.87863281 -4.25085937 7.26117188 -3.875 6.625 C-3.50246094 5.98433594 -3.12992188 5.34367187 -2.74609375 4.68359375 C-1.83565998 3.11951523 -0.91851809 1.55934466 0 0 Z " fill="#A2A1A2" transform="translate(53,26)"/>
<path d="M0 0 C5.4619849 4.01083024 9.20866205 9.27905273 10.6015625 15.9609375 C10.97083608 22.27745932 9.12718161 26.61234276 5.0625 31.375 C-1.75905717 38.52770073 -9.10366066 41.91972966 -18.9375 42.375 C-18.628125 41.6325 -18.31875 40.89 -18 40.125 C-16.1196462 35.86885885 -16.1196462 35.86885885 -16.65014648 31.48388672 C-17.03243408 30.84725098 -17.41472168 30.21061523 -17.80859375 29.5546875 C-18.21787109 28.85472656 -18.62714844 28.15476563 -19.04882812 27.43359375 C-19.48646484 26.71300781 -19.92410156 25.99242187 -20.375 25.25 C-21.23142943 23.81201299 -22.08446897 22.37199992 -22.93359375 20.9296875 C-23.31700928 20.29530762 -23.7004248 19.66092773 -24.09545898 19.00732422 C-24.9375 17.375 -24.9375 17.375 -24.9375 15.375 C-25.5975 15.375 -26.2575 15.375 -26.9375 15.375 C-27.31648438 16.41333984 -27.31648438 16.41333984 -27.703125 17.47265625 C-29.59686999 21.92535413 -32.18583357 25.9760601 -34.671875 30.12109375 C-36.26648103 33.3210582 -36.26648103 33.3210582 -35.203125 36.59765625 C-34.78546875 37.51417969 -34.3678125 38.43070313 -33.9375 39.375 C-33.6075 40.365 -33.2775 41.355 -32.9375 42.375 C-41.11044674 42.06065589 -48.68063658 39.01540962 -54.93359375 33.66796875 C-58.7527082 29.4488473 -61.80822963 24.75757467 -62.03125 18.921875 C-61.57452317 11.29453694 -58.77958407 6.97410255 -53.3125 1.75 C-38.72183143 -10.57706952 -15.760185 -9.2459752 0 0 Z " fill="#282526" transform="translate(79.9375,10.625)"/>
<path d="M0 0 C0.66 0 1.32 0 2 0 C3.74185215 2.85592108 5.43697113 5.73699304 7.125 8.625 C7.61871094 9.43324219 8.11242188 10.24148437 8.62109375 11.07421875 C12.12377696 17.1422474 12.12377696 17.1422474 11.5546875 21.0859375 C11.04164062 22.04757813 10.52859375 23.00921875 10 24 C9.29080673 25.45791534 8.58250694 26.91626557 7.875 28.375 C7.2539497 29.58536811 6.63032133 30.79443396 6 32 C6.95366455 31.98952637 7.9073291 31.97905273 8.88989258 31.96826172 C12.42891688 31.93205499 15.9679248 31.90909716 19.50708008 31.89013672 C21.03868361 31.88008065 22.57026795 31.866434 24.10180664 31.84912109 C26.30359636 31.82485502 28.50513219 31.81351312 30.70703125 31.8046875 C31.39150833 31.79436493 32.07598541 31.78404236 32.78120422 31.77340698 C36.43061661 31.77254618 37.87148502 31.91432334 41 34 C41.30409587 36.87322788 41.41995458 39.52710203 41.3984375 42.40234375 C41.40130768 43.23584854 41.40417786 44.06935333 41.40713501 44.92811584 C41.40917826 46.69256264 41.4036302 48.45703196 41.39111328 50.22143555 C41.37508288 52.92353016 41.39094213 55.6241244 41.41015625 58.32617188 C41.40817347 60.03906581 41.40432907 61.7519588 41.3984375 63.46484375 C41.40451019 64.2742894 41.41058289 65.08373505 41.4168396 65.91770935 C41.34742748 71.45297451 41.34742748 71.45297451 39.91011047 73.71603394 C36.99528739 75.67536245 34.53270138 75.35880995 31.05004883 75.34057617 C30.34735367 75.34101425 29.64465851 75.34145233 28.92066956 75.34190369 C26.59917364 75.33981447 24.27840091 75.31647819 21.95703125 75.29296875 C20.34706517 75.28737324 18.73709398 75.28310293 17.12712097 75.28010559 C12.89045093 75.26865318 8.6540896 75.23918279 4.4175415 75.20599365 C0.0941587 75.17530119 -4.22927401 75.16160203 -8.55273438 75.14648438 C-17.0352979 75.1143133 -25.51761054 75.06311238 -34 75 C-30.70353089 71.14223665 -30.70353089 71.14223665 -27.62078857 70.51898193 C-26.74142639 70.52786438 -25.86206421 70.53674683 -24.95605469 70.54589844 C-23.95531921 70.54620056 -22.95458374 70.54650269 -21.92352295 70.54681396 C-20.85047913 70.56745911 -19.7774353 70.58810425 -18.671875 70.609375 C-17.01566132 70.61786469 -17.01566132 70.61786469 -15.32598877 70.62652588 C-11.80021774 70.64891232 -8.27546376 70.69911504 -4.75 70.75 C-2.35938968 70.77006197 0.03123658 70.78831326 2.421875 70.8046875 C8.28159687 70.84878457 14.14072578 70.91572002 20 71 C20.2502157 68.08365871 20.2502157 68.08365871 20 65 C19.01 64.34 18.02 63.68 17 63 C18.98 62.34 20.96 61.68 23 61 C23.99 63.64 24.98 66.28 26 69 C25.67 69.33 25.34 69.66 25 70 C25.84304687 70.06058594 26.68609375 70.12117188 27.5546875 70.18359375 C29.19824219 70.30927734 29.19824219 70.30927734 30.875 70.4375 C32.51082031 70.55931641 32.51082031 70.55931641 34.1796875 70.68359375 C37 71 37 71 39 72 C38.67 71.01 38.34 70.02 38 69 C37.84820986 66.6444552 37.75100711 64.28524877 37.68359375 61.92578125 C37.66281265 61.2419487 37.64203156 60.55811615 37.62062073 59.8535614 C37.55533846 57.6733079 37.49633983 55.49293595 37.4375 53.3125 C37.39429447 51.83267014 37.35067953 50.35285217 37.30664062 48.87304688 C37.19967917 45.24882378 37.09835177 41.62446811 37 38 C35.90042969 37.84917969 34.80085938 37.69835938 33.66796875 37.54296875 C30 37 30 37 27.3125 36.3125 C24.98548461 35.7729601 24.98548461 35.7729601 23.0625 37 C20.15372218 38.41031652 18.11073522 37.5956727 15 37 C14.01 37.33 13.02 37.66 12 38 C11.67 37.34 11.34 36.68 11 36 C8.47266765 35.34444881 8.47266765 35.34444881 6 35 C6.495 37.475 6.495 37.475 7 40 C5 39 5 39 4 36 C3.4225 36.185625 2.845 36.37125 2.25 36.5625 C-0.20692525 37.04023546 -1.64397534 36.75729364 -4 36 C-4.33 37.65 -4.66 39.3 -5 41 C-7 38 -7 38 -7 36 C-10.11332248 36.66868314 -10.11332248 36.66868314 -11.1875 39.0625 C-11.455625 39.701875 -11.72375 40.34125 -12 41 C-12.495 38.525 -12.495 38.525 -13 36 C-15.97 36.99 -18.94 37.98 -22 39 C-22 38.01 -22 37.02 -22 36 C-23.65 36 -25.3 36 -27 36 C-27.33 35.34 -27.66 34.68 -28 34 C-31.02934491 33.34227572 -31.02934491 33.34227572 -34 33 C-34 32.67 -34 32.34 -34 32 C-24.1 32 -14.2 32 -4 32 C-5.98 28.04 -7.96 24.08 -10 20 C-7.75 13.25 -7.75 13.25 -6.0546875 10.3515625 C-5.70019531 9.73925781 -5.34570312 9.12695312 -4.98046875 8.49609375 C-4.61566406 7.87863281 -4.25085938 7.26117188 -3.875 6.625 C-3.50246094 5.98433594 -3.12992188 5.34367187 -2.74609375 4.68359375 C-1.83565998 3.11951523 -0.91851809 1.55934466 0 0 Z " fill="#A5A6A6" transform="translate(53,26)"/>
<path d="M0 0 C0.46148437 0.32613281 0.92296875 0.65226562 1.3984375 0.98828125 C-5.89996797 13.65798512 -5.89996797 13.65798512 -9.6015625 18.98828125 C-13.77243661 17.59798988 -14.78364948 14.70984407 -16.7890625 11.05078125 C-17.15708984 10.40431641 -17.52511719 9.75785156 -17.90429688 9.09179688 C-20.6015625 4.27274901 -20.6015625 4.27274901 -20.6015625 1.98828125 C-21.2615625 1.98828125 -21.9215625 1.98828125 -22.6015625 1.98828125 C-22.98441406 3.01501953 -22.98441406 3.01501953 -23.375 4.0625 C-24.79005358 7.43789851 -26.47414816 10.58802163 -28.2265625 13.80078125 C-28.55140625 14.39826172 -28.87625 14.99574219 -29.2109375 15.61132812 C-30.00535401 17.0716526 -30.80311626 18.53015616 -31.6015625 19.98828125 C-32.2615625 19.98828125 -32.9215625 19.98828125 -33.6015625 19.98828125 C-34.54128906 18.30798828 -34.54128906 18.30798828 -35.5 16.59375 C-36.32545773 15.12105838 -37.15098204 13.64840407 -37.9765625 12.17578125 C-38.3890625 11.43779297 -38.8015625 10.69980469 -39.2265625 9.93945312 C-39.62617187 9.22724609 -40.02578125 8.51503906 -40.4375 7.78125 C-40.80407715 7.12664795 -41.1706543 6.4720459 -41.54833984 5.79760742 C-42.50363049 4.15651819 -43.5482521 2.56824685 -44.6015625 0.98828125 C-29.63018766 -8.59098877 -15.20530772 -10.18695517 0 0 Z " fill="#515050" transform="translate(75.6015625,24.01171875)"/>
<path d="M0 0 C0.99 0.66 1.98 1.32 3 2 C5.64632287 1.6878236 5.64632287 1.6878236 8 1 C8.98058352 2.45738102 9.95942132 3.91593675 10.9375 5.375 C11.75541016 6.59316406 11.75541016 6.59316406 12.58984375 7.8359375 C15.6072004 12.46645158 15.69393435 16.56019281 15 22 C11.85074328 30.04966964 4.76667696 35.64653108 -2.8671875 39.25390625 C-6.49784356 40.52397092 -10.17689882 40.82300457 -14 41 C-13.690625 40.278125 -13.38125 39.55625 -13.0625 38.8125 C-11.92563225 36.07935171 -11.92563225 36.07935171 -11.5625 33.375 C-11 31 -11 31 -9.72265625 29.76171875 C-7.30220912 27.28638619 -5.64718852 24.38790176 -3.875 21.4375 C-3.51535156 20.84775391 -3.15570313 20.25800781 -2.78515625 19.65039062 C-1.45598532 17.46248567 -0.14536983 15.29073966 1 13 C0.01 12.34 -0.98 11.68 -2 11 C-2.875 7.625 -2.875 7.625 -3 4 C-1.5625 1.5625 -1.5625 1.5625 0 0 Z " fill="#292627" transform="translate(75,12)"/>
<path d="M0 0 C0.66 0 1.32 0 2 0 C3.74185215 2.85592108 5.43697113 5.73699304 7.125 8.625 C7.61871094 9.43324219 8.11242187 10.24148437 8.62109375 11.07421875 C12.14068275 17.17153491 12.14068275 17.17153491 11.4375 21.3125 C10.963125 22.199375 10.48875 23.08625 10 24 C9.66742188 24.77085938 9.33484375 25.54171875 8.9921875 26.3359375 C7.41322283 29.21782406 6.13809542 31.43095229 3.140625 32.9296875 C0.53302256 33.34407393 -0.62746593 33.20410564 -3 32 C-6.13709114 28.34769316 -8.49532871 24.58088814 -10 20 C-9.05694428 15.07515347 -6.40241569 10.90285199 -3.875 6.625 C-3.50246094 5.98433594 -3.12992188 5.34367187 -2.74609375 4.68359375 C-1.83565998 3.11951523 -0.91851809 1.55934466 0 0 Z " fill="#ECC830" transform="translate(53,26)"/>
<path d="M0 0 C3.43621057 3.32536507 4.85234504 4.77657317 5.4375 9.625 C5.36680579 16.10530243 0.90574799 19.9912386 -3.3125 24.4375 C-7.0837447 26.63008413 -10.69789571 26.81254448 -15 27 C-14.690625 26.278125 -14.38125 25.55625 -14.0625 24.8125 C-12.92563225 22.07935171 -12.92563225 22.07935171 -12.5625 19.375 C-12 17 -12 17 -10.72265625 15.765625 C-8.29207913 13.27442124 -6.64646564 10.34690939 -4.875 7.375 C-1.10472973 1.10472973 -1.10472973 1.10472973 0 0 Z " fill="#525251" transform="translate(76,26)"/>
<path d="M0 0 C4.96487441 4.32951571 7.72921493 9.4202338 10.8125 15.1875 C11.31458984 16.10208984 11.81667969 17.01667969 12.33398438 17.95898438 C16 24.71742134 16 24.71742134 16 27 C7.69070954 26.04647487 4.03318531 24.70373934 -1.59765625 18.13671875 C-4.04041892 14.41473775 -4.26158968 10.37818511 -4 6 C-2.95112154 3.51013899 -1.79709402 2.06938099 0 0 Z " fill="#515151" transform="translate(31,26)"/>
<path d="M0 0 C6.6 0 13.2 0 20 0 C18.33516769 4.16208077 16.51455762 7.8899777 14.375 11.8125 C14.05015625 12.40998047 13.7253125 13.00746094 13.390625 13.62304688 C12.59620849 15.08337135 11.79844624 16.54187491 11 18 C10.34 18 9.68 18 9 18 C7.49480613 15.37785672 5.99568681 12.75255792 4.5 10.125 C3.85611328 9.00544922 3.85611328 9.00544922 3.19921875 7.86328125 C2.79316406 7.14785156 2.38710938 6.43242188 1.96875 5.6953125 C1.59169922 5.03547363 1.21464844 4.37563477 0.82617188 3.69580078 C0 2 0 2 0 0 Z " fill="#040302" transform="translate(33,26)"/>
<path d="M0 0 C6.6 0 13.2 0 20 0 C18.4005386 4.79838421 17.0713266 7.78057812 14.375 11.875 C13.74335937 12.84179688 13.11171875 13.80859375 12.4609375 14.8046875 C11.73777344 15.89136719 11.73777344 15.89136719 11 17 C6.82912589 15.60970863 5.81791302 12.72156282 3.8125 9.0625 C3.44447266 8.41603516 3.07644531 7.76957031 2.69726562 7.10351562 C0 2.28446776 0 2.28446776 0 0 Z " fill="#030302" transform="translate(55,26)"/>
<path d="M0 0 C0 1.32 0 2.64 0 4 C-1.65 3.67 -3.3 3.34 -5 3 C-4.67 3.66 -4.34 4.32 -4 5 C-2.02 5 -0.04 5 2 5 C2 7.31 2 9.62 2 12 C-6.19154557 12.61822985 -6.19154557 12.61822985 -9.125 10.375 C-10.32045922 7.13018211 -10.04652828 5.27912195 -9 2 C-6.03346211 -1.28438123 -4.12096351 -1.25918329 0 0 Z " fill="#818080" transform="translate(83,62)"/>
<path d="M0 0 C1.32 0 2.64 0 4 0 C4.33 0.66 4.66 1.32 5 2 C5.66 1.34 6.32 0.68 7 0 C7.99 0 8.98 0 10 0 C10.66 0.66 11.32 1.32 12 2 C12.33 1.34 12.66 0.68 13 0 C14.32 0.33 15.64 0.66 17 1 C16.01 1 15.02 1 14 1 C14 2.32 14 3.64 14 5 C14.66 4.01 15.32 3.02 16 2 C15.54177532 5.46941546 15.10868317 8.67395049 14 12 C10.22745547 11.49019669 8.55012877 10.79299818 6 8 C5.34 8 4.68 8 4 8 C3.67 5.69 3.34 3.38 3 1 C2.01 1.33 1.02 1.66 0 2 C0 1.34 0 0.68 0 0 Z " fill="#616261" transform="translate(36,62)"/>
<path d="M0 0 C2.31 0 4.62 0 7 0 C7 4.29 7 8.58 7 13 C4.69 13 2.38 13 0 13 C0 8.71 0 4.42 0 0 Z " fill="#757575" transform="translate(66,81)"/>
<path d="M0 0 C0.66 0 1.32 0 2 0 C2 0.66 2 1.32 2 2 C3.65 2.33 5.3 2.66 7 3 C7.59732819 5.76264289 8 8.16032769 8 11 C6.02 11.33 4.04 11.66 2 12 C2.33 11.34 2.66 10.68 3 10 C2.505 9.5875 2.01 9.175 1.5 8.75 C0 7 0 7 0 3 C-0.33 4.98 -0.66 6.96 -1 9 C-1.33 9 -1.66 9 -2 9 C-2.125 5.625 -2.125 5.625 -2 2 C-1.34 1.34 -0.68 0.68 0 0 Z " fill="#656565" transform="translate(37,82)"/>
<path d="M0 0 C1.98 0.66 3.96 1.32 6 2 C6.33 1.34 6.66 0.68 7 0 C7 0.99 7 1.98 7 3 C5.35 3.33 3.7 3.66 2 4 C2 4.99 2 5.98 2 7 C3.65 7.33 5.3 7.66 7 8 C7 9.32 7 10.64 7 12 C3.42236811 12.32523926 1.60457419 12.42956587 -1.375 10.3125 C-3 8 -3 8 -3.4375 5.4375 C-2.93493775 2.63751034 -2.19653565 1.73892405 0 0 Z " fill="#828282" transform="translate(23,82)"/>
<path d="M0 0 C-0.20625 0.598125 -0.4125 1.19625 -0.625 1.8125 C-1.30671915 4.28450846 -1.30671915 4.28450846 1 7 C0.48275862 10.51724138 0.48275862 10.51724138 -1 12 C-2.99958364 12.04080783 -5.00045254 12.04254356 -7 12 C-7.33 10.68 -7.66 9.36 -8 8 C-6.68 8 -5.36 8 -4 8 C-4.66 7.34 -5.32 6.68 -6 6 C-5.34 5.67 -4.68 5.34 -4 5 C-4.66 3.35 -5.32 1.7 -6 0 C-3.50907189 -1.24546405 -2.58919267 -0.7767578 0 0 Z " fill="#767676" transform="translate(31,62)"/>
<path d="M0 0 C6 0 6 0 7.9375 1.1875 C9 3 9 3 8.8125 5.625 C8 8 8 8 6 9 C5.67 7.35 5.34 5.7 5 4 C4.34 4 3.68 4 3 4 C1.8509288 5.9254644 1.8509288 5.9254644 2 8 C2.99 8 3.98 8 5 8 C4.34 9.65 3.68 11.3 3 13 C2.01 13 1.02 13 0 13 C0 8.71 0 4.42 0 0 Z " fill="#6D6D6D" transform="translate(78,81)"/>
<path d="M0 0 C1.32 0.66 2.64 1.32 4 2 C4 4.31 4 6.62 4 9 C2.02 9.99 2.02 9.99 0 11 C-0.99 10.34 -1.98 9.68 -3 9 C-3.1875 5.375 -3.1875 5.375 -3 2 C-1.68 2.33 -0.36 2.66 1 3 C0.67 2.01 0.34 1.02 0 0 Z " fill="#6D6D6D" transform="translate(57,82)"/>
<path d="M0 0 C1.15666049 3.46998148 0.78653952 4.4216245 -0.3125 7.8125 C-0.73402344 9.13314453 -0.73402344 9.13314453 -1.1640625 10.48046875 C-1.43992187 11.31191406 -1.71578125 12.14335938 -2 13 C-2.391875 14.19625 -2.78375 15.3925 -3.1875 16.625 C-3.455625 17.40875 -3.72375 18.1925 -4 19 C-5.625 17.375 -5.625 17.375 -7 15 C-5.98510009 9.54491298 -2.76614156 4.7510065 0 0 Z " fill="#E1C131" transform="translate(50,31)"/>
<path d="M0 0 C2.3125 -0.3125 2.3125 -0.3125 5 0 C6.875 2.3125 6.875 2.3125 8 5 C7.67 5.99 7.34 6.98 7 8 C6.67 7.67 6.34 7.34 6 7 C6 7.66 6 8.32 6 9 C4.68 9 3.36 9 2 9 C0.9986012 5.99580359 0.48578543 3.12290635 0 0 Z " fill="#787877" transform="translate(59,61)"/>
<path d="M0 0 C2 1 4 2 6 3 C5.67 4.32 5.34 5.64 5 7 C5.99 7.33 6.98 7.66 8 8 C8.33 8.99 8.66 9.98 9 11 C7.35 10.67 5.7 10.34 4 10 C4 8.68 4 7.36 4 6 C3.01 6 2.02 6 1 6 C0.67 7.32 0.34 8.64 0 10 C0 6.7 0 3.4 0 0 Z " fill="#8E8E8E" transform="translate(79,83)"/>
<path d="M0 0 C0 1.32 0 2.64 0 4 C-0.78375 3.835 -1.5675 3.67 -2.375 3.5 C-4.88208039 2.9376293 -4.88208039 2.9376293 -7 3 C-7.33 4.65 -7.66 6.3 -8 8 C-8.66 8 -9.32 8 -10 8 C-9.51760563 2.57306338 -9.51760563 2.57306338 -7.25 0.0625 C-4.41184751 -1.27773867 -2.94905709 -0.90110078 0 0 Z " fill="#686869" transform="translate(83,62)"/>
<path d="M0 0 C1.32 0 2.64 0 4 0 C4.33 1.65 4.66 3.3 5 5 C5.66 5 6.32 5 7 5 C7.33 3.68 7.66 2.36 8 1 C8.66 1.66 9.32 2.32 10 3 C9.625 5.125 9.625 5.125 9 7 C7.35 7.33 5.7 7.66 4 8 C3.67 5.69 3.34 3.38 3 1 C2.01 1.33 1.02 1.66 0 2 C0 1.34 0 0.68 0 0 Z " fill="#797879" transform="translate(36,62)"/>
<path d="M0 0 C-0.165 0.598125 -0.33 1.19625 -0.5 1.8125 C-1.1114124 4.11344336 -1.1114124 4.11344336 -1 7 C-1.66 7.66 -2.32 8.32 -3 9 C-3.99 8.01 -4.98 7.02 -6 6 C-5.34 5.67 -4.68 5.34 -4 5 C-4.66 3.35 -5.32 1.7 -6 0 C-3.50907189 -1.24546405 -2.58919267 -0.7767578 0 0 Z " fill="#616162" transform="translate(31,62)"/>
<path d="M0 0 C1.98 0.66 3.96 1.32 6 2 C6.33 1.34 6.66 0.68 7 0 C7 0.99 7 1.98 7 3 C5.35 3.33 3.7 3.66 2 4 C2.33 5.65 2.66 7.3 3 9 C2.01 8.67 1.02 8.34 0 8 C-0.6875 5.9375 -0.6875 5.9375 -1 4 C-1.66 5.32 -2.32 6.64 -3 8 C-3.36923077 3.44615385 -3.36923077 3.44615385 -1.5 1.1875 C-1.005 0.795625 -0.51 0.40375 0 0 Z " fill="#585858" transform="translate(23,82)"/>
<path d="M0 0 C0.33 0.66 0.66 1.32 1 2 C2.65 2 4.3 2 6 2 C6 2.66 6 3.32 6 4 C5.01 4.66 4.02 5.32 3 6 C3.99 7.485 3.99 7.485 5 9 C2.36 9 -0.28 9 -3 9 C-2.34 8.67 -1.68 8.34 -1 8 C-1 7.34 -1 6.68 -1 6 C-0.34 6 0.32 6 1 6 C0.67 4.02 0.34 2.04 0 0 Z " fill="#E9C544" transform="translate(53,49)"/>
<path d="M0 0 C2.10517651 2.56282357 3.78884685 4.62154967 4 8 C2.5625 10.25 2.5625 10.25 1 12 C0.67 10.35 0.34 8.7 0 7 C-0.66 7 -1.32 7 -2 7 C-2 6.34 -2 5.68 -2 5 C-1.01 5 -0.02 5 1 5 C1 4.34 1 3.68 1 3 C0.34 2.67 -0.32 2.34 -1 2 C-0.67 1.34 -0.34 0.68 0 0 Z " fill="#E2BF30" transform="translate(61,38)"/>
<path d="M0 0 C0.66 0.99 1.32 1.98 2 3 C2.99 3.33 3.98 3.66 5 4 C4.67 4.99 4.34 5.98 4 7 C2.68 6.67 1.36 6.34 0 6 C-0.38218767 4.34385343 -0.71395102 2.67542976 -1 1 C-0.67 0.67 -0.34 0.34 0 0 Z " fill="#6D6D6D" transform="translate(77,65)"/>
<path d="M0 0 C1.98 0.495 1.98 0.495 4 1 C4 2.32 4 3.64 4 5 C2.35 4.67 0.7 4.34 -1 4 C-0.67 2.68 -0.34 1.36 0 0 Z " fill="#A5A5A5" transform="translate(39,85)"/>
<path d="M0 0 C3.2542015 2.83430453 4.5206753 4.68607774 5 9 C4.67 8.34 4.34 7.68 4 7 C3.01 6.67 2.02 6.34 1 6 C1 5.01 1 4.02 1 3 C0.34 3 -0.32 3 -1 3 C-0.67 2.01 -0.34 1.02 0 0 Z " fill="#271E1B" transform="translate(84,16)"/>
<path d="M0 0 C1.98 0 3.96 0 6 0 C4.68 0.33 3.36 0.66 2 1 C2.66 2.32 3.32 3.64 4 5 C2.35 4.67 0.7 4.34 -1 4 C-0.67 2.68 -0.34 1.36 0 0 Z " fill="#8E8D8C" transform="translate(24,63)"/>
<path d="M0 0 C0.99 0.33 1.98 0.66 3 1 C2.67 2.32 2.34 3.64 2 5 C0.35 5.33 -1.3 5.66 -3 6 C-3 5.34 -3 4.68 -3 4 C-2.34 3.67 -1.68 3.34 -1 3 C-0.67 2.01 -0.34 1.02 0 0 Z " fill="#4A4B4C" transform="translate(70,46)"/>
<path d="M0 0 C2.2477975 2.05233685 3.0022242 3.00667261 4 6 C3.01 6.33 2.02 6.66 1 7 C1 6.34 1 5.68 1 5 C0.01 5 -0.98 5 -2 5 C-1.34 3.35 -0.68 1.7 0 0 Z " fill="#5292D1" transform="translate(18,34)"/>
<path d="M0 0 C0.66 0.66 1.32 1.32 2 2 C-1.05269846 3.52634923 -3.75845689 2.83794444 -7.125 2.5625 C-8.40632813 2.46066406 -9.68765625 2.35882812 -11.0078125 2.25390625 C-12.48894531 2.12822266 -12.48894531 2.12822266 -14 2 C-14 1.67 -14 1.34 -14 1 C-11.70954632 0.77872902 -9.41755236 0.5733496 -7.125 0.375 C-5.84882812 0.25898438 -4.57265625 0.14296875 -3.2578125 0.0234375 C-2.18273437 0.01570313 -1.10765625 0.00796875 0 0 Z " fill="#444442" transform="translate(75,24)"/>
</svg>
